<svg width="20" height="19" viewBox="0 0 20 19" fill="none" xmlns="http://www.w3.org/2000/svg">
<path d="M1.60922 1.55273H18.2687C18.6575 1.55273 18.9727 1.86789 18.9727 2.25666V13.9887C18.9727 14.3775 18.6575 14.6926 18.2687 14.6926H9.45194C9.31063 14.6926 9.17259 14.7352 9.05578 14.8147L4.82108 17.6979C4.35377 18.0161 3.72099 17.6814 3.72099 17.116V15.3966C3.72099 15.0078 3.40583 14.6926 3.01707 14.6926H1.60922C1.22046 14.6926 0.9053 14.3775 0.9053 13.9887V2.25666C0.9053 1.86789 1.22046 1.55273 1.60922 1.55273Z" stroke="black" stroke-width="1.1732"/>
<circle cx="5.36461" cy="8.12242" r="1.1732" fill="black"/>
<circle cx="10.056" cy="8.12242" r="1.1732" fill="black"/>
<circle cx="14.7513" cy="8.12242" r="1.1732" fill="black"/>
</svg>
