<svg width="24" height="24" viewBox="0 0 24 24" fill="none" xmlns="http://www.w3.org/2000/svg">
<path d="M21.3333 24H2.66667C1.95942 24 1.28115 23.7338 0.781049 23.2601C0.280952 22.7863 0 22.1437 0 21.4737V5.05263C0 4.38261 0.280952 3.74003 0.781049 3.26626C1.28115 2.79248 1.95942 2.52632 2.66667 2.52632H4V0.631579C4 0.548639 4.01724 0.466511 4.05075 0.389884C4.08425 0.313257 4.13336 0.243633 4.19526 0.184985C4.25717 0.126337 4.33066 0.0798158 4.41154 0.048076C4.49243 0.0163362 4.57912 0 4.66667 0H6C6.08755 0 6.17424 0.0163362 6.25512 0.048076C6.33601 0.0798158 6.4095 0.126337 6.4714 0.184985C6.53331 0.243633 6.58242 0.313257 6.61592 0.389884C6.64942 0.466511 6.66667 0.548639 6.66667 0.631579V2.52632H17.3333V0.631579C17.3333 0.548639 17.3506 0.466511 17.3841 0.389884C17.4176 0.313257 17.4667 0.243633 17.5286 0.184985C17.5905 0.126337 17.664 0.0798158 17.7449 0.048076C17.8258 0.0163362 17.9125 0 18 0H19.3333C19.4209 0 19.5076 0.0163362 19.5885 0.048076C19.6693 0.0798158 19.7428 0.126337 19.8047 0.184985C19.8666 0.243633 19.9157 0.313257 19.9493 0.389884C19.9828 0.466511 20 0.548639 20 0.631579V2.52632H21.3333C22.0406 2.52632 22.7189 2.79248 23.219 3.26626C23.719 3.74003 24 4.38261 24 5.05263V21.4737C24 22.1437 23.719 22.7863 23.219 23.2601C22.7189 23.7338 22.0406 24 21.3333 24ZM2.66667 7.57895V21.4737H21.3333V7.57895H2.66667ZM10.4572 16.2H6.66667C6.31305 16.2 5.97391 16.0669 5.72386 15.83C5.47381 15.5931 5.33333 15.2719 5.33333 14.9368V11.3684C5.33333 11.0334 5.47381 10.7121 5.72386 10.4752C5.97391 10.2383 6.31305 10.1053 6.66667 10.1053H10.4572C10.8108 10.1053 11.15 10.2383 11.4 10.4752C11.65 10.7121 11.7905 11.0334 11.7905 11.3684V14.9368C11.7905 15.2719 11.65 15.5931 11.4 15.83C11.15 16.0669 10.8108 16.2 10.4572 16.2Z" fill="#141414"/>
</svg>
