<svg width="22" height="20" viewBox="0 0 22 20" fill="none" xmlns="http://www.w3.org/2000/svg">
<path d="M6.6 19.7147C7.70457 19.7147 8.6 18.8193 8.6 17.7147V14.8576C8.6 13.753 9.49543 12.8576 10.6 12.8576H11.4C12.5046 12.8576 13.4 13.753 13.4 14.8576V17.7147C13.4 18.8193 14.2954 19.7147 15.4 19.7147H17.4C18.5046 19.7147 19.4 18.8193 19.4 17.7147V11.544C19.4 11.0071 19.8352 10.5718 20.3721 10.5718C21.2746 10.5718 21.69 9.449 21.0048 8.86164L12.3016 1.40178C11.5526 0.759793 10.4474 0.759793 9.69842 1.40178L0.995237 8.86164C0.309993 9.449 0.725363 10.5718 1.62788 10.5718C2.16477 10.5718 2.6 11.0071 2.6 11.544V17.7147C2.6 18.8193 3.49543 19.7147 4.6 19.7147H6.6Z" fill="#141414"/>
</svg>
