<svg width="24" height="20" viewBox="0 0 24 20" fill="none" xmlns="http://www.w3.org/2000/svg">
<path d="M23.9668 5.00883C23.9544 4.98558 23.9389 4.96391 23.9273 4.94028L21.0166 0.471167C20.9414 0.35797 20.7964 0.286133 20.638 0.286133H3.4692C3.31346 0.286133 3.16846 0.355793 3.09328 0.466813L0.0778691 4.93375C0.0622767 4.95903 0.0463024 4.98441 0.032569 5.01075C0.0108563 5.05239 0 5.09911 0 5.14709C0 7.1694 2.02997 8.81511 4.52446 8.81511C6.71383 8.81511 9.81051 8.81511 11.9999 8.81511C14.1893 8.81511 17.2859 8.81511 19.4753 8.81511C21.9698 8.81511 23.9998 7.1694 23.9998 5.14709C24.0019 5.09763 23.9892 5.05085 23.9668 5.00883ZM19.478 10.2083C19.181 10.2083 18.8868 10.1912 18.5972 10.1579C16.7437 9.9444 14.7365 9.94367 12.8832 10.1578C12.5928 10.1913 12.2985 10.2083 12.0026 10.2083C11.7056 10.2083 11.4113 10.1912 11.1218 10.1579C9.26832 9.9444 7.26112 9.94367 5.40772 10.1578C5.11733 10.1913 4.82311 10.2083 4.52714 10.2083C3.05661 10.2083 1.47414 11.2343 1.47414 12.7048V17.5814C1.47414 18.7569 2.6556 19.7147 4.10558 19.7147H19.9049C21.3549 19.7147 22.5364 18.7569 22.5364 17.5814V12.7099C22.5364 11.2353 20.9526 10.2083 19.478 10.2083Z" fill="#141414"/>
</svg>
