<svg width="24" height="18" viewBox="0 0 24 18" fill="none" xmlns="http://www.w3.org/2000/svg">
<path d="M16.3636 7.77565C18.1745 7.77565 19.6255 6.13483 19.6255 4.10218C19.6255 2.06953 18.1745 0.428711 16.3636 0.428711C14.5527 0.428711 13.0909 2.06953 13.0909 4.10218C13.0909 6.13483 14.5527 7.77565 16.3636 7.77565ZM7.63636 7.77565C9.44727 7.77565 10.8982 6.13483 10.8982 4.10218C10.8982 2.06953 9.44727 0.428711 7.63636 0.428711C5.82545 0.428711 4.36364 2.06953 4.36364 4.10218C4.36364 6.13483 5.82545 7.77565 7.63636 7.77565ZM7.63636 10.2246C5.09455 10.2246 0 11.6573 0 14.5103C0 16.201 1.37056 17.5716 3.06123 17.5716H12.2115C13.9022 17.5716 15.2727 16.201 15.2727 14.5103C15.2727 11.6573 10.1782 10.2246 7.63636 10.2246ZM16.3636 10.2246C15.9747 10.2246 15.8151 10.7244 16.076 11.0128C16.9153 11.9404 17.4545 13.0946 17.4545 14.5103C17.4545 16.201 18.8251 17.5716 20.5158 17.5716H20.9388C22.6294 17.5716 24 16.201 24 14.5103C24 11.6573 18.9055 10.2246 16.3636 10.2246Z" fill="#141414"/>
</svg>
