<svg width="24" height="24" viewBox="0 0 24 24" fill="none" xmlns="http://www.w3.org/2000/svg">
<path d="M12.1694 10.855V16.878C12.1694 17.1349 11.9609 17.3433 11.7041 17.3433H1.61373C1.35691 17.3433 1.14844 17.1349 1.14844 16.878V10.8947C1.7674 10.8539 2.32081 10.5702 2.71411 10.1382C2.77106 10.0823 2.84843 10.0469 2.93333 10.0469C3.01822 10.0469 3.09129 10.0791 3.14717 10.1328C3.15577 10.1425 3.16329 10.1511 3.17296 10.1597C3.17296 10.1597 3.17404 10.1608 3.17511 10.1629C3.60065 10.6175 4.20456 10.9001 4.87296 10.9001C5.54135 10.9001 6.14634 10.6164 6.57081 10.1629C6.57081 10.1619 6.57188 10.1608 6.57295 10.1597C6.58263 10.1511 6.59015 10.1414 6.59874 10.1328C6.65462 10.0791 6.72984 10.0469 6.81259 10.0469C6.89533 10.0469 6.97055 10.0791 7.02643 10.1328C7.03503 10.1425 7.04255 10.1511 7.05222 10.1597C7.05222 10.1597 7.0533 10.1608 7.05437 10.1629C7.47991 10.6175 8.08382 10.9001 8.75222 10.9001C9.42061 10.9001 10.0256 10.6164 10.4501 10.1629C10.4501 10.1619 10.4511 10.1608 10.4522 10.1597C10.4619 10.1511 10.4694 10.1414 10.478 10.1328C10.5339 10.0791 10.6091 10.0469 10.6918 10.0469C10.7746 10.0469 10.853 10.0802 10.9089 10.135C10.9089 10.1361 10.9111 10.1371 10.9121 10.1382C10.9186 10.1457 10.925 10.1533 10.9326 10.1608C10.9326 10.1608 10.9326 10.1608 10.9326 10.1619C11.2571 10.5079 11.6848 10.7561 12.1662 10.8539L12.1694 10.855Z" fill="white"/>
<path d="M13.245 9.6364C13.2815 9.75783 13.1128 9.9029 12.8699 9.95771H12.6346C12.0672 9.95771 11.5461 9.75353 11.142 9.41396L10.9701 9.26997C10.8186 9.07439 10.5703 9.07439 10.4188 9.26997L10.2469 9.41396C9.84284 9.75353 9.32166 9.95771 8.75428 9.95771C8.1869 9.95771 7.66572 9.75353 7.26168 9.41396L7.08974 9.26997C6.93823 9.07439 6.69 9.07439 6.53848 9.26997L6.36655 9.41396C5.9625 9.75353 5.44133 9.95771 4.87394 9.95771C4.30656 9.95771 3.78539 9.75353 3.38134 9.41396L3.20941 9.26997C3.05789 9.07439 2.80966 9.07439 2.65814 9.26997L2.48621 9.41396C2.08217 9.75353 1.56099 9.95771 0.993609 9.95771C0.616429 9.95771 0.54873 9.93299 0.54873 9.93299C0.216682 9.80941 -0.0293985 9.64178 0.0028391 9.56118C0.0350767 9.48059 0.0920301 9.31295 0.128566 9.1883C0.165102 9.06365 0.19519 8.96156 0.19519 8.96156C0.19519 8.96156 0.275784 8.68754 0.374646 8.35227C0.473508 8.017 0.636846 7.46466 0.736782 7.12509L0.863584 6.69741C0.964595 6.35784 1.05164 6.06125 1.05808 6.03976C1.06453 6.01827 1.36004 6 1.71466 6H11.5246C11.8792 6 12.1779 6.03116 12.1897 6.06877C12.2016 6.10638 12.2918 6.41587 12.3928 6.75543L12.5637 7.33464C12.6636 7.67421 12.8237 8.21472 12.9183 8.53388C13.0129 8.85303 13.0902 9.11523 13.0902 9.11523C13.0902 9.11523 13.1107 9.18293 13.1354 9.26567C13.1601 9.34841 13.2095 9.51605 13.2461 9.63748L13.245 9.6364Z" fill="white"/>
<path d="M23.1641 12.2071V16.8761C23.1641 17.0749 23.0018 17.2372 22.803 17.2372H14.9822C14.7834 17.2372 14.6211 17.0749 14.6211 16.8761V12.2382C15.1014 12.2071 15.5302 11.9868 15.8343 11.6515C15.8784 11.6085 15.9385 11.5806 16.0041 11.5806C16.0696 11.5806 16.1266 11.6064 16.1706 11.6472C16.1771 11.6547 16.1835 11.6612 16.19 11.6687C16.19 11.6687 16.1911 11.6698 16.1921 11.6708C16.522 12.0233 16.9895 12.2425 17.5085 12.2425C18.0275 12.2425 18.495 12.0233 18.8249 11.6708C18.8249 11.6698 18.826 11.6687 18.827 11.6687C18.8346 11.6622 18.8399 11.6547 18.8464 11.6472C18.8894 11.6053 18.9485 11.5806 19.0129 11.5806C19.0774 11.5806 19.1354 11.6064 19.1795 11.6472C19.1859 11.6547 19.1924 11.6612 19.1988 11.6687C19.1988 11.6687 19.1999 11.6698 19.201 11.6708C19.5309 12.0233 19.9983 12.2425 20.5174 12.2425C21.0364 12.2425 21.5038 12.0233 21.8337 11.6708C21.8337 11.6698 21.8348 11.6687 21.8359 11.6687C21.8434 11.6622 21.8488 11.6547 21.8552 11.6472C21.8982 11.6053 21.9573 11.5806 22.0218 11.5806C22.0863 11.5806 22.1464 11.6064 22.1894 11.6483C22.1894 11.6493 22.1916 11.6504 22.1916 11.6504C22.1959 11.6569 22.2012 11.6622 22.2077 11.6676C22.2077 11.6676 22.2077 11.6676 22.2077 11.6687C22.4591 11.9373 22.7912 12.1286 23.1641 12.2049V12.2071Z" fill="white"/>
<path d="M23.9951 11.1904C24.0231 11.285 23.893 11.3967 23.705 11.4397H23.5223C23.0828 11.4397 22.6787 11.2818 22.365 11.0185L22.2317 10.9067C22.1146 10.7552 21.9222 10.7552 21.804 10.9067L21.6708 11.0185C21.357 11.2818 20.954 11.4397 20.5135 11.4397C20.0729 11.4397 19.6699 11.2818 19.3561 11.0185L19.2229 10.9067C19.1057 10.7552 18.9134 10.7552 18.7952 10.9067L18.6619 11.0185C18.3482 11.2818 17.9452 11.4397 17.5046 11.4397C17.064 11.4397 16.6611 11.2818 16.3473 11.0185L16.214 10.9067C16.0969 10.7552 15.9045 10.7552 15.7863 10.9067L15.6531 11.0185C15.3393 11.2818 14.9363 11.4397 14.4958 11.4397H14.2035C13.9176 11.3333 13.7038 11.1947 13.7285 11.1324C13.7532 11.0701 13.7973 10.94 13.8263 10.8433C13.8553 10.7466 13.8779 10.6671 13.8779 10.6671C13.8779 10.6671 13.9402 10.4543 14.0176 10.1943C14.0949 9.93423 14.2389 9.44422 14.3399 9.10357L14.3561 9.04984C14.4571 8.71027 14.543 8.41798 14.5484 8.40079C14.5538 8.3836 14.8472 8.36963 15.2018 8.36963H22.5154C22.87 8.36963 23.1677 8.39327 23.1763 8.42336C23.1849 8.45345 23.2741 8.75433 23.3751 9.09498L23.4256 9.26583C23.5255 9.6054 23.6684 10.0868 23.7415 10.334C23.8146 10.5811 23.8748 10.7842 23.8748 10.7842C23.8748 10.7842 23.8909 10.8369 23.9091 10.9003C23.9274 10.9637 23.9661 11.0937 23.9951 11.1883V11.1904Z" fill="white"/>
</svg>
