<svg width="24" height="20" viewBox="0 0 24 20" fill="none" xmlns="http://www.w3.org/2000/svg">
<path d="M23.1989 4.87402C24.5763 5.61627 22.986 7.39173 22.986 8.95636V10.4253C22.986 10.6661 23.0761 10.8983 23.2386 11.0761C23.5705 11.4393 23.5759 11.994 23.2512 12.3636L23.0051 12.6439C22.5107 13.2067 21.6302 13.2081 21.1241 12.6558C20.6753 12.166 20.6868 11.4028 21.1578 10.9343C21.3916 10.7018 21.523 10.3857 21.523 10.0561V9.84515C21.523 8.57757 20.2133 7.73292 19.0573 8.25284C15.8168 9.71023 14.5471 10.2749 13.6167 10.7341C12.4798 11.2951 11.6612 11.2922 10.5337 10.8275C9.40604 10.3626 4.03847 8.21976 1.37319 6.82448C-0.405333 5.89357 -0.519837 5.30316 1.40374 4.51308C3.91413 3.46985 8.06339 1.79915 10.2628 0.887332C11.5647 0.311221 12.2532 -0.00331488 13.4482 0.653666C15.582 1.61752 20.4578 3.61895 22.8823 4.71399C22.9983 4.76933 23.1035 4.82263 23.1989 4.87402ZM13.8639 12.4532C16.1045 11.4419 18.5976 12.9364 18.5976 15.3947V15.6642C18.5976 16.5079 18.2983 17.3341 17.6266 17.8448C16.5706 18.6478 14.6812 19.7147 12.0969 19.7147C9.26116 19.7147 7.25407 18.6071 6.16758 17.7996C5.51663 17.3158 5.224 16.5245 5.224 15.7135C5.224 13.2963 7.75841 11.5703 10.0228 12.4161C10.0557 12.4284 10.0887 12.4407 10.1219 12.4532C11.3001 12.9117 12.7951 13.0702 13.8639 12.4532Z" fill="#141414"/>
</svg>
