<svg width="20" height="18" viewBox="0 0 20 18" fill="none" xmlns="http://www.w3.org/2000/svg">
<path d="M9.00536 17.4434L5.67901 5.87354H0.617188L9.00536 17.4434Z" fill="#F8FAFC" stroke="#0F172A" stroke-width="0.986843" stroke-linejoin="round"/>
<path d="M12.477 5.87354L9.00603 17.4434L5.67969 5.87354H12.477Z" fill="#F8FAFC" stroke="#0F172A" stroke-width="0.986843" stroke-linejoin="round"/>
<path d="M9.00391 17.4434L12.4749 5.87354H17.2474L9.00391 17.4434Z" fill="#F8FAFC" stroke="#0F172A" stroke-width="0.986843" stroke-linejoin="round"/>
<path d="M3.94353 0.666504L0.617188 5.87295H5.67901L3.94353 0.666504Z" fill="#F8FAFC" stroke="#0F172A" stroke-width="0.986843" stroke-linejoin="round"/>
<path d="M5.6808 5.87295L3.94531 0.666504H9.00714L5.6808 5.87295Z" fill="#F8FAFC" stroke="#0F172A" stroke-width="0.986843" stroke-linejoin="round"/>
<path d="M12.477 5.87295H5.67969L9.00603 0.666504L12.477 5.87295Z" fill="#F8FAFC" stroke="#0F172A" stroke-width="0.986843" stroke-linejoin="round"/>
<path d="M12.4749 5.87295L9.00391 0.666504H14.355L12.4749 5.87295Z" fill="#F8FAFC" stroke="#0F172A" stroke-width="0.986843" stroke-linejoin="round"/>
<path d="M12.4766 5.87295L14.3567 0.666504L17.3938 5.87295H12.4766Z" fill="#F8FAFC" stroke="#0F172A" stroke-width="0.986843" stroke-linejoin="round"/>
<path d="M14.4344 5.4787C11.9935 2.19289 4.671 5.47837 14.4343 13.6929C24.1976 5.47836 16.8752 2.19289 14.4344 5.4787Z" fill="#F8FAFC" stroke="#0F172A" stroke-width="0.986843" stroke-linejoin="round"/>
</svg>
