<svg width="24" height="24" viewBox="0 0 24 24" fill="none" xmlns="http://www.w3.org/2000/svg">
<g clip-path="url(#clip0_8324_5254)">
<path d="M21.3246 11.5791C20.4474 10.555 20.049 9.66783 20.049 8.15997V7.64735C20.049 5.68329 19.5966 4.41793 18.615 3.15138C17.0982 1.18492 14.5495 0 12.0535 0H11.9479C9.50351 0 7.03393 1.13089 5.49315 3.01692C4.45636 4.30748 3.95236 5.62806 3.95236 7.64735V8.15997C3.95236 9.66783 3.58036 10.555 2.67677 11.5791C2.01318 12.3342 1.80078 13.3042 1.80078 14.3523C1.80078 15.4039 2.14518 16.3992 2.83757 17.2083C3.75033 18.1816 4.98885 18.7854 6.31754 18.9047C8.20272 19.1196 10.0879 19.2 12.0019 19.2C13.9135 19.2 15.7986 19.0655 17.685 18.9047C19.0137 18.7854 20.2522 18.1816 21.165 17.2083C21.8427 16.4126 22.2104 15.3988 22.2006 14.3535C22.2006 13.3042 21.9882 12.3342 21.3246 11.5803V11.5791Z" fill="#0F172A"/>
<path d="M14.0843 20.5008C13.5693 20.3669 10.4318 20.3669 9.91674 20.5008C9.47588 20.627 9 20.9161 9 21.5512C9.02575 22.1571 9.31519 22.6937 9.71691 23.0333H9.71588C10.2288 23.5246 10.8373 23.8435 11.4814 23.9587C11.8213 24.0155 12.1674 24.013 12.5197 23.9587C13.1562 23.8451 13.766 23.5295 14.2841 23.0346V23.0333C14.6858 22.6924 14.9742 22.1584 15 21.5512C15 20.9161 14.5241 20.6257 14.0833 20.5008H14.0843Z" fill="#0F172A"/>
</g>
<defs>
<clipPath id="clip0_8324_5254">
<rect width="24" height="24" fill="white"/>
</clipPath>
</defs>
</svg>
