<svg width="24" height="24" viewBox="0 0 24 24" fill="none" xmlns="http://www.w3.org/2000/svg">
<path d="M15.2542 1H8.66016V7.4885C8.66016 7.4885 8.66016 8.33956 9.72341 8.33956C10.7867 8.33956 10.7867 7.4885 10.7867 7.4885C10.7867 7.4885 10.68 8.33956 11.9566 8.33956C13.2332 8.33956 13.1265 7.4885 13.1265 7.4885C13.1265 7.4885 13.2332 8.33956 14.1898 8.33956C15.1464 8.33956 15.4664 7.4885 15.4664 7.4885V4.40425C15.4664 4.40425 16.1041 4.29758 16.1041 3.44652C16.1041 2.59546 16.3163 1.21334 15.253 1H15.2542Z" fill="white"/>
<path d="M10.7657 13.8211C10.7577 14.3418 11.4126 14.8591 11.8014 15.0816C11.8267 15.0966 11.8553 15.1103 11.8852 15.1252V12.6787C11.2314 12.9242 10.7726 13.422 10.7657 13.8223V13.8211Z" fill="white"/>
<path d="M13.9228 16.8857C13.7817 16.7801 13.6957 16.7572 13.3883 16.6884C13.2644 16.6609 13.1164 16.6276 12.9375 16.5806V19.214C13.3653 19.1521 13.753 18.9858 14.0203 18.7117C14.1292 18.5993 14.4825 18.1967 14.4309 17.7081C14.3827 17.2516 13.9996 16.9419 13.9228 16.8845V16.8857Z" fill="white"/>
<path d="M20.3225 9.7583H4.25895C3.72101 9.7583 3.28516 10.1942 3.28516 10.7321V21.0263C3.28516 21.5642 3.72101 22.0001 4.25895 22.0001H20.3225C20.8604 22.0001 21.2963 21.5642 21.2963 21.0263V10.7321C21.2963 10.1942 20.8604 9.7583 20.3225 9.7583ZM14.7688 19.4457C14.3031 19.9217 13.6436 20.197 12.9359 20.2716V21.0618H11.8864V20.2383C11.2682 20.1339 10.666 19.8827 10.1682 19.4824C9.67616 19.0856 9.29536 18.5362 9.06711 17.8916L10.0558 17.5406C10.221 18.0074 10.4802 18.3859 10.8266 18.6646C11.1305 18.9101 11.501 19.0753 11.8864 19.1647V16.2514C11.6318 16.1619 11.4517 16.0897 11.2808 15.9922C10.9092 15.7788 9.70025 14.992 9.7186 13.806C9.73466 12.7405 10.7807 11.8722 11.8864 11.582V10.6541H12.9359V11.4902C14.1758 11.6015 14.9924 12.4686 15.1622 12.6648L14.3696 13.3518C14.2997 13.2715 13.7491 12.6636 12.937 12.5478V15.4932C13.2249 15.5781 13.4371 15.6263 13.6161 15.6653C13.9556 15.741 14.2251 15.8006 14.5531 16.0472C14.7458 16.1917 15.3836 16.732 15.4742 17.6002C15.5705 18.5178 15.0142 19.1968 14.7699 19.4469L14.7688 19.4457Z" fill="white"/>
</svg>
