<svg width="24" height="26" viewBox="0 0 24 26" fill="none" xmlns="http://www.w3.org/2000/svg">
<path d="M17.7787 22.0961C20.1634 22.0961 22.0965 21.2155 22.0965 20.1291C22.0965 19.0428 20.1634 18.1621 17.7787 18.1621C15.3941 18.1621 13.4609 19.0428 13.4609 20.1291C13.4609 21.2155 15.3941 22.0961 17.7787 22.0961Z" fill="white" stroke="#2055A5" stroke-width="0.86119" stroke-miterlimit="10"/>
<path d="M17.7787 19.8896C20.1634 19.8896 22.0965 19.0089 22.0965 17.9226C22.0965 16.8362 20.1634 15.9556 17.7787 15.9556C15.3941 15.9556 13.4609 16.8362 13.4609 17.9226C13.4609 19.0089 15.3941 19.8896 17.7787 19.8896Z" fill="white" stroke="#2055A5" stroke-width="0.86119" stroke-miterlimit="10"/>
<path d="M6.02482 23.7807C8.40947 23.7807 10.3426 22.9 10.3426 21.8137C10.3426 20.7273 8.40947 19.8467 6.02482 19.8467C3.64017 19.8467 1.70703 20.7273 1.70703 21.8137C1.70703 22.9 3.64017 23.7807 6.02482 23.7807Z" fill="white" stroke="#2055A5" stroke-width="0.86119" stroke-miterlimit="10"/>
<path d="M6.02482 21.1894C8.40947 21.1894 10.3426 20.3087 10.3426 19.2224C10.3426 18.136 8.40947 17.2554 6.02482 17.2554C3.64017 17.2554 1.70703 18.136 1.70703 19.2224C1.70703 20.3087 3.64017 21.1894 6.02482 21.1894Z" fill="white" stroke="#2055A5" stroke-width="0.86119" stroke-miterlimit="10"/>
<path d="M6.02482 18.9833C8.40947 18.9833 10.3426 18.1027 10.3426 17.0163C10.3426 15.93 8.40947 15.0493 6.02482 15.0493C3.64017 15.0493 1.70703 15.93 1.70703 17.0163C1.70703 18.1027 3.64017 18.9833 6.02482 18.9833Z" fill="white" stroke="#2055A5" stroke-width="0.86119" stroke-miterlimit="10"/>
<path d="M6.02482 16.7768C8.40947 16.7768 10.3426 15.8961 10.3426 14.8098C10.3426 13.7234 8.40947 12.8428 6.02482 12.8428C3.64017 12.8428 1.70703 13.7234 1.70703 14.8098C1.70703 15.8961 3.64017 16.7768 6.02482 16.7768Z" fill="white" stroke="#2055A5" stroke-width="0.86119" stroke-miterlimit="10"/>
<path d="M11.8764 25.1239C14.261 25.1239 16.1942 24.2433 16.1942 23.1569C16.1942 22.0706 14.261 21.1899 11.8764 21.1899C9.49173 21.1899 7.55859 22.0706 7.55859 23.1569C7.55859 24.2433 9.49173 25.1239 11.8764 25.1239Z" fill="white" stroke="#2055A5" stroke-width="0.86119" stroke-miterlimit="10"/>
<path d="M11.8764 22.5331C14.261 22.5331 16.1942 21.6525 16.1942 20.5661C16.1942 19.4798 14.261 18.5991 11.8764 18.5991C9.49173 18.5991 7.55859 19.4798 7.55859 20.5661C7.55859 21.6525 9.49173 22.5331 11.8764 22.5331Z" fill="white" stroke="#2055A5" stroke-width="0.86119" stroke-miterlimit="10"/>
<path d="M11.8764 20.3271C14.261 20.3271 16.1942 19.4464 16.1942 18.3601C16.1942 17.2737 14.261 16.3931 11.8764 16.3931C9.49173 16.3931 7.55859 17.2737 7.55859 18.3601C7.55859 19.4464 9.49173 20.3271 11.8764 20.3271Z" fill="white" stroke="#2055A5" stroke-width="0.86119" stroke-miterlimit="10"/>
<path d="M11.4405 12.0202C14.4496 12.0202 16.8889 9.58093 16.8889 6.57189C16.8889 3.56284 14.4496 1.12354 11.4405 1.12354C8.4315 1.12354 5.99219 3.56284 5.99219 6.57189C5.99219 9.58093 8.4315 12.0202 11.4405 12.0202Z" stroke="white" stroke-width="1.3779" stroke-miterlimit="10"/>
<path d="M17.043 10.9434L20.0454 13.2602" stroke="white" stroke-width="1.3779" stroke-miterlimit="10"/>
</svg>
